<svg width="100" height="100" viewBox="0 0 100 100" fill="none" xmlns="http://www.w3.org/2000/svg">
<circle cx="50" cy="50" r="50" fill="#276061"/>
<path d="M49.4814 32.2324C54.2497 32.2324 58.5439 34.1728 61.6787 37.3076L62.5508 38.1797L63.4219 37.3076L66.7529 33.9766V45.959H54.7705L60.9824 39.7471L60.1182 38.876C57.4062 36.139 53.6744 34.3936 49.4814 34.3936C41.1443 34.3936 34.3701 41.1677 34.3701 49.5049C34.3702 57.842 41.1443 64.6161 49.4814 64.6162C55.7457 64.6162 61.1122 60.7965 63.3926 55.3633H65.6895C63.2913 62.0211 56.9634 66.7764 49.4814 66.7764C39.9406 66.7763 32.2325 59.0497 32.2324 49.5049C32.2324 39.96 39.9406 32.2325 49.4814 32.2324Z" fill="#11222A" stroke="#11222A" stroke-width="2.46575"/>
</svg>
