<svg width="58" height="58" viewBox="0 0 58 58" fill="none" xmlns="http://www.w3.org/2000/svg">
<path d="M29 1.5C44.1878 1.5 56.5 13.8122 56.5 29C56.5 44.1878 44.1878 56.5 29 56.5C13.8122 56.5 1.5 44.1878 1.5 29C1.5 13.8122 13.8122 1.5 29 1.5Z" fill="#1F3E4C" stroke="#EBF2F4" stroke-width="3"/>
<mask id="mask0_559_210" style="mask-type:luminance" maskUnits="userSpaceOnUse" x="14" y="16" width="31" height="30">
<path d="M14.7832 16.3887H44.0495V45.655H14.7832V16.3887Z" fill="white"/>
</mask>
<g mask="url(#mask0_559_210)">
<mask id="mask1_559_210" style="mask-type:luminance" maskUnits="userSpaceOnUse" x="3" y="3" width="52" height="52">
<path d="M28.565 3.67969L54.0186 32.323L29.2642 54.3204L3.81055 25.6771L28.565 3.67969Z" fill="white"/>
</mask>
<g mask="url(#mask1_559_210)">
<mask id="mask2_559_210" style="mask-type:luminance" maskUnits="userSpaceOnUse" x="3" y="3" width="52" height="52">
<path d="M28.565 3.67969L54.0186 32.323L29.2642 54.3204L3.81055 25.6771L28.565 3.67969Z" fill="white"/>
</mask>
<g mask="url(#mask2_559_210)">
<path fill-rule="evenodd" clip-rule="evenodd" d="M19.6759 24.5665C17.8258 22.4859 18.1631 20.9254 19.1157 20.1003C21.1735 18.3207 22.816 20.2051 23.5533 22.1562C24.2259 23.9187 24.7042 26.3785 25.2567 29.0269C25.895 32.0927 26.8458 36.8751 28.7645 40.5201C30.5269 43.864 33.1983 46.3886 37.1862 45.3654C40.0899 44.6204 42.5174 42.2368 43.5825 39.8189C40.6253 42.7932 37.7578 44.266 35.0312 43.3686C32.2951 42.4673 30.908 40.1218 30.1211 37.5153C28.8502 33.3007 28.4291 27.2283 27.2631 22.9317C26.8648 21.4627 26.2189 19.8241 25.1977 18.5989C20.48 12.9438 11.6791 20.2471 17.3533 26.6319L19.0834 28.5792L17.1361 30.3093C14.3219 32.8091 14.0646 37.1609 16.5664 39.9751C19.0681 42.7894 23.4161 43.0447 26.2304 40.5429L27.3069 39.5864C26.8591 38.5785 26.4761 37.5325 26.1408 36.4655L24.1669 38.2203C22.6349 39.5807 20.2513 39.4416 18.8909 37.9097C17.5286 36.3759 17.6677 33.9923 19.1996 32.6319L23.4695 28.8364L19.6759 24.5665Z" fill="white"/>
</g>
</g>
</g>
<mask id="mask3_559_210" style="mask-type:luminance" maskUnits="userSpaceOnUse" x="13" y="11" width="31" height="31">
<path d="M13.8086 11.999H43.0749V41.7531H13.8086V11.999Z" fill="white"/>
</mask>
<g mask="url(#mask3_559_210)">
<mask id="mask4_559_210" style="mask-type:luminance" maskUnits="userSpaceOnUse" x="3" y="3" width="52" height="52">
<path d="M28.565 3.68066L54.0186 32.3239L29.2642 54.3213L3.81055 25.678L28.565 3.68066Z" fill="white"/>
</mask>
<g mask="url(#mask4_559_210)">
<mask id="mask5_559_210" style="mask-type:luminance" maskUnits="userSpaceOnUse" x="3" y="3" width="52" height="52">
<path d="M28.565 3.68066L54.0186 32.3239L29.2642 54.3213L3.81055 25.678L28.565 3.68066Z" fill="white"/>
</mask>
<g mask="url(#mask5_559_210)">
<path fill-rule="evenodd" clip-rule="evenodd" d="M38.1819 33.4081C40.0339 35.4925 39.6947 37.0511 38.742 37.8761C36.6843 39.6538 35.0437 37.7694 34.3026 35.8203C33.6357 34.0578 33.1536 31.598 32.6011 28.9476C31.9628 25.8838 31.012 21.1014 29.0952 17.4564C27.3309 14.1125 24.6595 11.5879 20.6735 12.6111C17.7679 13.3561 15.3423 15.7378 14.2734 18.1576C17.2325 15.1833 20.1 13.7105 22.8266 14.606C25.5646 15.5072 26.9498 17.8546 27.7367 20.4593C29.0076 24.6758 29.4306 30.7463 30.5947 35.0429C30.993 36.5138 31.6408 38.1524 32.6621 39.3757C37.3778 45.0327 46.1787 37.7294 40.5045 31.3446L38.7744 29.3973L40.7236 27.6653C43.5378 25.1655 43.7951 20.8175 41.2933 18.0033C38.7916 15.1871 34.4436 14.9299 31.6274 17.4316L30.5509 18.3881C30.9987 19.3961 31.3816 20.444 31.717 21.5091L33.6928 19.7543C35.2248 18.3939 37.6084 18.5329 38.9707 20.0668C40.3311 21.5987 40.1901 23.9823 38.6582 25.3427L34.3883 29.1382L38.1819 33.4081Z" fill="#69A779"/>
</g>
</g>
</g>
<mask id="mask6_559_210" style="mask-type:luminance" maskUnits="userSpaceOnUse" x="13" y="14" width="5" height="5">
<path d="M13.3203 14.4375H17.7103V18.3397H13.3203V14.4375Z" fill="white"/>
</mask>
<g mask="url(#mask6_559_210)">
<mask id="mask7_559_210" style="mask-type:luminance" maskUnits="userSpaceOnUse" x="12" y="14" width="6" height="5">
<path d="M12.8359 15.0949L16.66 14.0508L17.5727 17.3985L13.7486 18.4407L12.8359 15.0949Z" fill="white"/>
</mask>
<g mask="url(#mask7_559_210)">
<mask id="mask8_559_210" style="mask-type:luminance" maskUnits="userSpaceOnUse" x="12" y="14" width="6" height="5">
<path d="M12.8359 15.0949L16.66 14.0508L17.5727 17.3985L13.7486 18.4407L12.8359 15.0949Z" fill="white"/>
</mask>
<g mask="url(#mask8_559_210)">
<path d="M17.0637 17.5245L14.2552 18.2904C14.1752 18.3133 14.0952 18.3133 14.0133 18.2923C13.9332 18.2714 13.8627 18.2314 13.8037 18.1723C13.7446 18.1132 13.7046 18.0446 13.6817 17.9627C13.6608 17.8827 13.6608 17.8026 13.6817 17.7226L14.421 14.9065C14.442 14.8246 14.482 14.756 14.5411 14.6969C14.6001 14.6378 14.6687 14.5959 14.7506 14.575C14.8307 14.5521 14.9107 14.5521 14.9907 14.5731C15.0726 14.594 15.1412 14.634 15.2022 14.6931L17.239 16.7147C17.3172 16.7776 17.3667 16.8557 17.3915 16.9509C17.4258 17.0748 17.4105 17.191 17.3495 17.3034C17.2867 17.414 17.1933 17.4883 17.0714 17.5226L17.0637 17.5245Z" fill="#69A779"/>
</g>
</g>
</g>
<mask id="mask9_559_210" style="mask-type:luminance" maskUnits="userSpaceOnUse" x="40" y="39" width="5" height="5">
<path d="M40.1484 39.3145H44.5384V43.7044H40.1484V39.3145Z" fill="white"/>
</mask>
<g mask="url(#mask9_559_210)">
<mask id="mask10_559_210" style="mask-type:luminance" maskUnits="userSpaceOnUse" x="40" y="38" width="6" height="6">
<path d="M42.5152 38.3691L45.4285 41.0557L43.0773 43.605L40.1621 40.9185L42.5152 38.3691Z" fill="white"/>
</mask>
<g mask="url(#mask10_559_210)">
<mask id="mask11_559_210" style="mask-type:luminance" maskUnits="userSpaceOnUse" x="40" y="38" width="6" height="6">
<path d="M42.5152 38.3691L45.4285 41.0557L43.0773 43.605L40.1621 40.9185L42.5152 38.3691Z" fill="white"/>
</mask>
<g mask="url(#mask11_559_210)">
<path d="M42.6994 43.2425L40.5578 41.2686C40.4968 41.2114 40.4549 41.1428 40.4302 41.0628C40.4054 40.9847 40.4016 40.9047 40.4187 40.8227C40.4378 40.7408 40.4759 40.6703 40.5311 40.6093C40.5883 40.5484 40.6569 40.5045 40.735 40.4798L43.5149 39.6128C43.595 39.588 43.675 39.5842 43.7569 39.6014C43.8369 39.6204 43.9093 39.6585 43.9703 39.7138C44.0313 39.771 44.0751 39.8396 44.0999 39.9196C44.1246 39.9977 44.1285 40.0796 44.1094 40.1597L43.4787 42.9605C43.4673 43.0577 43.4273 43.1434 43.3587 43.2159C43.271 43.3092 43.1643 43.3588 43.0367 43.3645C42.909 43.3721 42.7985 43.3321 42.7033 43.2463L42.6994 43.2425Z" fill="white"/>
</g>
</g>
</g>
</svg>
