<svg width="52" height="52" viewBox="0 0 52 52" fill="none" xmlns="http://www.w3.org/2000/svg">
<circle cx="26" cy="26" r="26" fill="#1F3E4C"/>
<mask id="mask0_465_791" style="mask-type:luminance" maskUnits="userSpaceOnUse" x="11" y="13" width="31" height="30">
<path d="M11.7832 13.3887H41.0495V42.655H11.7832V13.3887Z" fill="white"/>
</mask>
<g mask="url(#mask0_465_791)">
<mask id="mask1_465_791" style="mask-type:luminance" maskUnits="userSpaceOnUse" x="0" y="0" width="52" height="52">
<path d="M25.565 0.679932L51.0186 29.3232L26.2642 51.3206L0.810547 22.6773L25.565 0.679932Z" fill="white"/>
</mask>
<g mask="url(#mask1_465_791)">
<mask id="mask2_465_791" style="mask-type:luminance" maskUnits="userSpaceOnUse" x="0" y="0" width="52" height="52">
<path d="M25.565 0.679932L51.0186 29.3232L26.2642 51.3206L0.810547 22.6773L25.565 0.679932Z" fill="white"/>
</mask>
<g mask="url(#mask2_465_791)">
<path fill-rule="evenodd" clip-rule="evenodd" d="M16.6759 21.5665C14.8258 19.4859 15.1631 17.9254 16.1157 17.1003C18.1735 15.3207 19.816 17.2051 20.5533 19.1562C21.2259 20.9187 21.7042 23.3785 22.2567 26.0269C22.895 29.0927 23.8458 33.8751 25.7645 37.5201C27.5269 40.864 30.1983 43.3886 34.1862 42.3654C37.0899 41.6204 39.5174 39.2368 40.5825 36.8189C37.6253 39.7932 34.7578 41.266 32.0312 40.3686C29.2951 39.4673 27.908 37.1218 27.1211 34.5153C25.8502 30.3007 25.4291 24.2283 24.2631 19.9317C23.8648 18.4627 23.2189 16.8241 22.1977 15.5989C17.48 9.94382 8.67914 17.2471 14.3533 23.6319L16.0834 25.5792L14.1361 27.3093C11.3219 29.8091 11.0646 34.1609 13.5664 36.9751C16.0681 39.7894 20.4161 40.0447 23.2304 37.5429L24.3069 36.5864C23.8591 35.5785 23.4761 34.5325 23.1408 33.4655L21.1669 35.2203C19.6349 36.5807 17.2513 36.4416 15.8909 34.9097C14.5286 33.3759 14.6677 30.9923 16.1996 29.6319L20.4695 25.8364L16.6759 21.5665Z" fill="white"/>
</g>
</g>
</g>
<mask id="mask3_465_791" style="mask-type:luminance" maskUnits="userSpaceOnUse" x="10" y="8" width="31" height="31">
<path d="M10.8086 8.99854H40.0749V38.7526H10.8086V8.99854Z" fill="white"/>
</mask>
<g mask="url(#mask3_465_791)">
<mask id="mask4_465_791" style="mask-type:luminance" maskUnits="userSpaceOnUse" x="0" y="0" width="52" height="52">
<path d="M25.565 0.679932L51.0186 29.3232L26.2642 51.3206L0.810547 22.6773L25.565 0.679932Z" fill="white"/>
</mask>
<g mask="url(#mask4_465_791)">
<mask id="mask5_465_791" style="mask-type:luminance" maskUnits="userSpaceOnUse" x="0" y="0" width="52" height="52">
<path d="M25.565 0.679932L51.0186 29.3232L26.2642 51.3206L0.810547 22.6773L25.565 0.679932Z" fill="white"/>
</mask>
<g mask="url(#mask5_465_791)">
<path fill-rule="evenodd" clip-rule="evenodd" d="M35.1819 30.4074C37.0339 32.4918 36.6947 34.0504 35.742 34.8754C33.6843 36.6531 32.0437 34.7687 31.3026 32.8196C30.6357 31.0571 30.1536 28.5973 29.6011 25.9469C28.9628 22.8831 28.012 18.1007 26.0952 14.4557C24.3309 11.1118 21.6595 8.58721 17.6735 9.61039C14.7679 10.3554 12.3423 12.7371 11.2734 15.1569C14.2325 12.1826 17.1 10.7098 19.8266 11.6053C22.5646 12.5065 23.9498 14.8539 24.7367 17.4586C26.0076 21.6751 26.4306 27.7456 27.5947 32.0422C27.993 33.5131 28.6408 35.1517 29.6621 36.375C34.3778 42.032 43.1787 34.7287 37.5045 28.3439L35.7744 26.3966L37.7236 24.6646C40.5378 22.1648 40.7951 17.8168 38.2933 15.0026C35.7916 12.1864 31.4436 11.9292 28.6274 14.4309L27.5509 15.3874C27.9987 16.3954 28.3816 17.4433 28.717 18.5084L30.6928 16.7536C32.2248 15.3932 34.6084 15.5322 35.9707 17.0661C37.3311 18.598 37.1901 20.9816 35.6582 22.342L31.3883 26.1375L35.1819 30.4074Z" fill="#69A779"/>
</g>
</g>
</g>
<mask id="mask6_465_791" style="mask-type:luminance" maskUnits="userSpaceOnUse" x="10" y="11" width="5" height="5">
<path d="M10.3203 11.4375H14.7103V15.3397H10.3203V11.4375Z" fill="white"/>
</mask>
<g mask="url(#mask6_465_791)">
<mask id="mask7_465_791" style="mask-type:luminance" maskUnits="userSpaceOnUse" x="9" y="11" width="6" height="5">
<path d="M9.83594 12.0949L13.66 11.0508L14.5727 14.3985L10.7486 15.4407L9.83594 12.0949Z" fill="white"/>
</mask>
<g mask="url(#mask7_465_791)">
<mask id="mask8_465_791" style="mask-type:luminance" maskUnits="userSpaceOnUse" x="9" y="11" width="6" height="5">
<path d="M9.83594 12.0949L13.66 11.0508L14.5727 14.3985L10.7486 15.4407L9.83594 12.0949Z" fill="white"/>
</mask>
<g mask="url(#mask8_465_791)">
<path d="M14.0637 14.5243L11.2552 15.2902C11.1752 15.3131 11.0952 15.3131 11.0133 15.2921C10.9332 15.2712 10.8627 15.2312 10.8037 15.1721C10.7446 15.113 10.7046 15.0444 10.6817 14.9625C10.6608 14.8825 10.6608 14.8024 10.6817 14.7224L11.421 11.9063C11.442 11.8244 11.482 11.7558 11.5411 11.6967C11.6001 11.6376 11.6687 11.5957 11.7506 11.5748C11.8307 11.5519 11.9107 11.5519 11.9907 11.5729C12.0726 11.5938 12.1412 11.6338 12.2022 11.6929L14.239 13.7145C14.3172 13.7774 14.3667 13.8555 14.3915 13.9507C14.4258 14.0746 14.4105 14.1908 14.3495 14.3032C14.2867 14.4138 14.1933 14.4881 14.0714 14.5224L14.0637 14.5243Z" fill="#69A779"/>
</g>
</g>
</g>
<mask id="mask9_465_791" style="mask-type:luminance" maskUnits="userSpaceOnUse" x="37" y="36" width="5" height="5">
<path d="M37.1484 36.314H41.5384V40.7039H37.1484V36.314Z" fill="white"/>
</mask>
<g mask="url(#mask9_465_791)">
<mask id="mask10_465_791" style="mask-type:luminance" maskUnits="userSpaceOnUse" x="37" y="35" width="6" height="6">
<path d="M39.5152 35.3689L42.4285 38.0555L40.0773 40.6048L37.1621 37.9183L39.5152 35.3689Z" fill="white"/>
</mask>
<g mask="url(#mask10_465_791)">
<mask id="mask11_465_791" style="mask-type:luminance" maskUnits="userSpaceOnUse" x="37" y="35" width="6" height="6">
<path d="M39.5152 35.3689L42.4285 38.0555L40.0773 40.6048L37.1621 37.9183L39.5152 35.3689Z" fill="white"/>
</mask>
<g mask="url(#mask11_465_791)">
<path d="M39.6994 40.2427L37.5578 38.2688C37.4968 38.2116 37.4549 38.143 37.4302 38.063C37.4054 37.9849 37.4016 37.9049 37.4187 37.8229C37.4378 37.741 37.4759 37.6705 37.5311 37.6095C37.5883 37.5486 37.6569 37.5047 37.735 37.48L40.5149 36.613C40.595 36.5882 40.675 36.5844 40.7569 36.6016C40.8369 36.6206 40.9093 36.6587 40.9703 36.714C41.0313 36.7712 41.0751 36.8398 41.0999 36.9198C41.1246 36.9979 41.1285 37.0798 41.1094 37.1599L40.4787 39.9607C40.4673 40.0579 40.4273 40.1436 40.3587 40.2161C40.271 40.3094 40.1643 40.359 40.0367 40.3647C39.909 40.3723 39.7985 40.3323 39.7033 40.2465L39.6994 40.2427Z" fill="white"/>
</g>
</g>
</g>
</svg>
