<svg width="63" height="63" viewBox="0 0 63 63" fill="none" xmlns="http://www.w3.org/2000/svg">
<path d="M31.5 44.625C32.2437 44.625 32.8672 44.3734 33.3703 43.8703C33.8734 43.3672 34.125 42.7437 34.125 42C34.125 41.2562 33.8734 40.6328 33.3703 40.1297C32.8672 39.6266 32.2437 39.375 31.5 39.375C30.7562 39.375 30.1328 39.6266 29.6297 40.1297C29.1266 40.6328 28.875 41.2562 28.875 42C28.875 42.7437 29.1266 43.3672 29.6297 43.8703C30.1328 44.3734 30.7562 44.625 31.5 44.625ZM28.875 34.125H34.125V18.375H28.875V34.125ZM31.5 57.75C27.8687 57.75 24.4562 57.0609 21.2625 55.6828C18.0687 54.3047 15.2906 52.4344 12.9281 50.0719C10.5656 47.7094 8.69531 44.9312 7.31719 41.7375C5.93906 38.5437 5.25 35.1312 5.25 31.5C5.25 27.8687 5.93906 24.4562 7.31719 21.2625C8.69531 18.0687 10.5656 15.2906 12.9281 12.9281C15.2906 10.5656 18.0687 8.69531 21.2625 7.31719C24.4562 5.93906 27.8687 5.25 31.5 5.25C35.1312 5.25 38.5437 5.93906 41.7375 7.31719C44.9312 8.69531 47.7094 10.5656 50.0719 12.9281C52.4344 15.2906 54.3047 18.0687 55.6828 21.2625C57.0609 24.4562 57.75 27.8687 57.75 31.5C57.75 35.1312 57.0609 38.5437 55.6828 41.7375C54.3047 44.9312 52.4344 47.7094 50.0719 50.0719C47.7094 52.4344 44.9312 54.3047 41.7375 55.6828C38.5437 57.0609 35.1312 57.75 31.5 57.75ZM31.5 52.5C37.3625 52.5 42.3281 50.4656 46.3969 46.3969C50.4656 42.3281 52.5 37.3625 52.5 31.5C52.5 25.6375 50.4656 20.6719 46.3969 16.6031C42.3281 12.5344 37.3625 10.5 31.5 10.5C25.6375 10.5 20.6719 12.5344 16.6031 16.6031C12.5344 20.6719 10.5 25.6375 10.5 31.5C10.5 37.3625 12.5344 42.3281 16.6031 46.3969C20.6719 50.4656 25.6375 52.5 31.5 52.5Z" fill="white"/>
</svg>
