<svg width="43" height="43" viewBox="0 0 43 43" fill="none" xmlns="http://www.w3.org/2000/svg">
<circle cx="21.3818" cy="21.3818" r="21.3818" fill="#298384" fill-opacity="0.8"/>
<path d="M20.8213 13.5C22.7551 13.5 24.4972 14.2863 25.7686 15.5576L26.1221 15.9111L27.8262 14.207V19.0664H22.9668L25.4854 16.5479L25.1357 16.1943C24.0359 15.0843 22.5218 14.376 20.8213 14.376C17.4402 14.3761 14.6934 17.1237 14.6934 20.5049C14.6935 23.8859 17.4402 26.6327 20.8213 26.6328C23.3618 26.6328 25.5391 25.0844 26.4639 22.8809H27.3945C26.4219 25.5809 23.8555 27.5098 20.8213 27.5098C16.9521 27.5097 13.8263 24.3757 13.8262 20.5049C13.8262 16.6339 16.952 13.5001 20.8213 13.5Z" fill="#11222A" stroke="#11222A"/>
</svg>
