<svg width="82" height="84" viewBox="0 0 82 84" fill="none" xmlns="http://www.w3.org/2000/svg">
<ellipse cx="40.8833" cy="41.7918" rx="40.8833" ry="41.7918" fill="#FFE3E3"/>
<ellipse cx="40.8836" cy="41.6545" rx="34.7122" ry="35.4836" fill="#FFB9B9"/>
<path d="M38.6468 47.5941H43.1208V52.0681H38.6468V47.5941ZM38.6468 29.698H43.1208V43.12H38.6468V29.698ZM40.8614 18.5129C28.5131 18.5129 18.5137 28.5347 18.5137 40.883C18.5137 53.2313 28.5131 63.2531 40.8614 63.2531C53.2321 63.2531 63.2539 53.2313 63.2539 40.883C63.2539 28.5347 53.2321 18.5129 40.8614 18.5129ZM40.8838 58.7791C30.9962 58.7791 22.9877 50.7706 22.9877 40.883C22.9877 30.9955 30.9962 22.987 40.8838 22.987C50.7713 22.987 58.7798 30.9955 58.7798 40.883C58.7798 50.7706 50.7713 58.7791 40.8838 58.7791Z" fill="#FF2323"/>
</svg>
