<svg width="81" height="83" viewBox="0 0 81 83" fill="none" xmlns="http://www.w3.org/2000/svg">
<ellipse cx="40.3036" cy="41.1992" rx="40.3036" ry="41.1992" fill="#32999A" fill-opacity="0.24"/>
<ellipse cx="40.304" cy="41.0642" rx="34.22" ry="34.9805" fill="#32999A" fill-opacity="0.42"/>
<path d="M38.0981 46.9195H42.5087V51.3301H38.0981V46.9195ZM38.0981 29.2772H42.5087V42.5089H38.0981V29.2772ZM40.2813 18.2507C28.1081 18.2507 18.2505 28.1304 18.2505 40.3036C18.2505 52.4768 28.1081 62.3565 40.2813 62.3565C52.4766 62.3565 62.3563 52.4768 62.3563 40.3036C62.3563 28.1304 52.4766 18.2507 40.2813 18.2507ZM40.3034 57.9459C30.556 57.9459 22.6611 50.051 22.6611 40.3036C22.6611 30.5562 30.556 22.6613 40.3034 22.6613C50.0508 22.6613 57.9457 30.5562 57.9457 40.3036C57.9457 50.051 50.0508 57.9459 40.3034 57.9459Z" fill="#32999A"/>
</svg>
