<svg width="289" height="165" viewBox="0 0 289 165" fill="none" xmlns="http://www.w3.org/2000/svg">
<path d="M49.3091 66.5762C49.3167 66.5743 49.5084 66.6358 55.2671 68.6064C61.2177 70.6427 61.2231 70.6405 61.2241 70.6377C61.2231 70.6408 61.222 70.6451 61.2202 70.6504C61.2127 70.673 61.1991 70.7161 61.1792 70.7783C61.1392 70.9033 61.0752 71.1071 60.9937 71.3818C60.8304 71.9318 60.596 72.767 60.3345 73.8389C59.8099 75.9893 59.1845 79.0598 58.7983 82.6748C58.0153 90.0045 58.2723 99.0517 61.8296 107.197C65.268 115.07 72.0041 122.63 85.355 127.021C97.7031 131.081 115.891 132.475 142.413 128.385L125.451 121.888C121.378 120.328 119.338 115.788 120.894 111.748C122.45 107.708 127.014 105.698 131.086 107.258L164.845 120.189C165.791 120.552 166.625 121.076 167.332 121.716C167.575 121.867 167.814 122.032 168.044 122.213C171.463 124.895 172.061 129.841 169.379 133.26L147.16 161.584C144.478 165.003 139.532 165.6 136.113 162.918C132.694 160.236 132.097 155.29 134.779 151.871L143.322 140.98C116.155 145.065 96.1177 143.812 81.4224 138.979C64.7182 133.486 55.1864 123.441 50.2925 112.235C45.5175 101.301 45.3775 89.7931 46.2808 81.3379C46.7376 77.061 47.4765 73.4318 48.105 70.8555C48.42 69.5643 48.7088 68.5282 48.9253 67.7988C49.0336 67.4341 49.1246 67.1454 49.1909 66.9385C49.2241 66.835 49.2505 66.7513 49.271 66.6895C49.2812 66.6587 49.2906 66.6334 49.2974 66.6133C49.3008 66.6032 49.3036 66.5943 49.3062 66.5869C49.3074 66.5832 49.3085 66.578 49.3091 66.5762Z" fill="#35989D"/>
<ellipse cx="59.2771" cy="55.8617" rx="8.729" ry="8.65467" fill="#35989D"/>
<path d="M217.632 103V56.987H231.625V103H217.632ZM224.629 51.7848C222.416 51.7848 220.503 50.9775 218.888 49.3631C217.274 47.7486 216.466 45.8351 216.466 43.6226C216.466 41.4102 217.274 39.4967 218.888 37.8822C220.503 36.208 222.416 35.3708 224.629 35.3708C226.841 35.3708 228.754 36.208 230.369 37.8822C231.983 39.4967 232.791 41.4102 232.791 43.6226C232.791 45.8351 231.983 47.7486 230.369 49.3631C228.754 50.9775 226.841 51.7848 224.629 51.7848Z" fill="#68A779"/>
<path d="M173.003 62.0098H173.271C174.168 60.7541 175.275 59.6782 176.591 58.7812C177.966 57.8245 179.461 57.1063 181.075 56.6279C182.749 56.1496 184.514 55.9111 186.367 55.9111C190.732 55.9111 194.559 56.8979 197.848 58.8711C201.136 60.8443 203.708 63.5651 205.562 67.0332C207.475 70.5013 208.432 74.5675 208.432 79.2314C208.432 82.819 207.864 86.138 206.728 89.1875C205.591 92.2368 203.947 94.8978 201.795 97.1699C199.702 99.3823 197.131 101.086 194.081 102.282C191.091 103.478 187.652 104.076 183.766 104.076C178.803 104.076 174.468 103.059 170.761 101.026C167.053 98.9933 164.182 96.0933 162.149 92.3262C160.117 88.5592 159.101 84.1642 159.101 79.1416V37.5234H173.003V62.0098ZM263.614 55.9111C268.756 55.9112 273.121 56.9872 276.709 59.1396C280.356 61.2325 283.137 64.1326 285.051 67.8398C287.024 71.4873 288.011 75.5835 288.011 80.1279V103H274.377V95.6455H274.019C273.181 97.2599 272.104 98.7246 270.789 100.04C269.474 101.296 267.86 102.282 265.946 103C264.093 103.718 261.88 104.076 259.309 104.076C255.243 104.076 251.654 103.03 248.545 100.938C245.436 98.8447 243.014 96.0337 241.28 92.5059C239.546 88.9182 238.679 84.882 238.679 80.3975C238.679 75.7335 239.695 71.5772 241.729 67.9297C243.762 64.2225 246.632 61.2923 250.339 59.1396C254.106 56.987 258.532 55.9111 263.614 55.9111ZM36.7744 68.1094H16.7725C15.9356 68.1095 15.2179 68.378 14.6201 68.916C14.082 69.4541 13.8135 70.1124 13.8135 70.8896C13.8135 71.7266 14.0821 72.4441 14.6201 73.042C15.218 73.5801 15.9355 73.8495 16.7725 73.8496H24.666C28.0144 73.8496 30.8846 74.3576 33.2764 75.374C35.728 76.3307 37.6122 77.8855 38.9277 80.0381C40.303 82.1907 40.9902 84.9716 40.9902 88.3799C40.9902 91.0705 40.3028 93.5221 38.9277 95.7344C37.6123 97.9467 35.818 99.7109 33.5459 101.026C31.3335 102.342 28.822 103 26.0117 103H1.88379V91.9678H24.0381C24.636 91.9678 25.174 91.8476 25.6523 91.6084C26.1307 91.3094 26.5194 90.9207 26.8184 90.4424C27.1172 89.9641 27.2676 89.456 27.2676 88.918C27.2675 88.3201 27.1173 87.782 26.8184 87.3037C26.5194 86.8254 26.1307 86.4667 25.6523 86.2275C25.174 85.9286 24.636 85.7783 24.0381 85.7783H15.9658C12.9761 85.7783 10.2553 85.3004 7.80371 84.3438C5.41198 83.3273 3.49855 81.7724 2.06348 79.6797C0.688209 77.527 0 74.7462 0 71.3379C4.70376e-05 68.707 0.628122 66.3147 1.88379 64.1621C3.19927 62.0097 4.96348 60.2754 7.17578 58.96C9.44791 57.6446 11.9295 56.9873 14.6201 56.9873H36.7744V68.1094ZM127.079 55.9111C131.623 55.9112 135.54 56.7777 138.829 58.5117C142.118 60.2458 144.659 62.638 146.453 65.6875C148.247 68.6772 149.144 72.0563 149.144 75.8232V103H135.151V76.2715C135.151 74.7767 134.763 73.4312 133.985 72.2354C133.268 70.9797 132.281 69.9629 131.025 69.1855C129.77 68.4082 128.334 68.0195 126.72 68.0195C125.105 68.0196 123.641 68.4083 122.325 69.1855C121.07 69.9629 120.083 70.9797 119.365 72.2354C118.648 73.4312 118.289 74.7767 118.289 76.2715V103H104.387V76.2715C104.387 74.7768 103.998 73.4311 103.221 72.2354C102.503 70.9797 101.486 69.9629 100.171 69.1855C98.9152 68.4082 97.4797 68.0195 95.8652 68.0195C94.2509 68.0196 92.7861 68.4083 91.4707 69.1855C90.215 69.9629 89.2283 70.9797 88.5107 72.2354C87.7933 73.4312 87.4346 74.7767 87.4346 76.2715V103H73.5312V75.8232C73.5313 72.0562 74.3988 68.6772 76.1328 65.6875C77.9267 62.638 80.4681 60.2458 83.7568 58.5117C87.0456 56.7777 90.9624 55.9111 95.5068 55.9111C97.779 55.9111 99.8718 56.1796 101.785 56.7178C103.699 57.1961 105.433 57.8843 106.987 58.7812C108.602 59.6183 109.977 60.6343 111.113 61.8301H111.293C112.489 60.6343 113.864 59.6183 115.419 58.7812C117.033 57.8843 118.798 57.1961 120.711 56.7178C122.684 56.1797 124.807 55.9111 127.079 55.9111ZM183.766 68.1094C181.613 68.1095 179.73 68.6474 178.115 69.7236C176.561 70.7401 175.364 72.1457 174.527 73.9395C173.69 75.7331 173.272 77.7661 173.271 80.0381C173.271 82.3103 173.69 84.3739 174.527 86.2275C175.364 88.0212 176.561 89.456 178.115 90.5322C179.73 91.5487 181.613 92.0575 183.766 92.0576C185.918 92.0576 187.772 91.5488 189.327 90.5322C190.882 89.456 192.078 88.0212 192.915 86.2275C193.812 84.3739 194.261 82.3103 194.261 80.0381C194.261 77.7661 193.812 75.7332 192.915 73.9395C192.078 72.1456 190.882 70.7401 189.327 69.7236C187.772 68.6473 185.918 68.1094 183.766 68.1094ZM263.435 68.1094C261.282 68.1094 259.399 68.6474 257.784 69.7236C256.17 70.7401 254.944 72.1456 254.106 73.9395C253.269 75.7331 252.851 77.7361 252.851 79.9482C252.851 82.2204 253.269 84.284 254.106 86.1377C254.944 87.9913 256.17 89.4559 257.784 90.5322C259.399 91.5487 261.282 92.0576 263.435 92.0576C265.527 92.0576 267.352 91.5488 268.906 90.5322C270.52 89.456 271.746 87.9911 272.583 86.1377C273.42 84.284 273.839 82.2204 273.839 79.9482C273.839 77.736 273.42 75.7332 272.583 73.9395C271.746 72.1457 270.521 70.7401 268.906 69.7236C267.352 68.6473 265.527 68.1094 263.435 68.1094ZM215.609 45.0361C215.532 44.5794 215.49 44.1086 215.49 43.623C215.49 43.1372 215.531 42.6661 215.609 42.209V45.0361Z" fill="white"/>
</svg>
